<svg width="208" height="26" viewBox="0 0 208 26" fill="none" xmlns="http://www.w3.org/2000/svg">
<g clip-path="url(#clip0_102_1629)">
<path d="M63.6748 9.50675C62.8343 9.50675 62.0283 9.84063 61.434 10.4349C60.8397 11.0293 60.5058 11.8353 60.5058 12.6758C60.5058 13.5163 60.8397 14.3223 61.434 14.9167C62.0283 15.511 62.8343 15.8448 63.6748 15.8448C64.5153 15.8448 65.3214 15.511 65.9157 14.9167C66.51 14.3223 66.8439 13.5163 66.8439 12.6758C66.8439 11.8353 66.51 11.0293 65.9157 10.4349C65.3214 9.84063 64.5153 9.50675 63.6748 9.50675ZM63.6748 7.39405C65.0756 7.39405 66.4191 7.95052 67.4096 8.94104C68.4001 9.93156 68.9566 11.275 68.9566 12.6758C68.9566 14.0766 68.4001 15.42 67.4096 16.4106C66.4191 17.4011 65.0756 17.9575 63.6748 17.9575C62.274 17.9575 60.9306 17.4011 59.9401 16.4106C58.9495 15.42 58.3931 14.0766 58.3931 12.6758C58.3931 11.275 58.9495 9.93156 59.9401 8.94104C60.9306 7.95052 62.274 7.39405 63.6748 7.39405ZM70.5411 7.12996C70.5411 7.48016 70.402 7.81602 70.1543 8.06365C69.9067 8.31128 69.5709 8.4504 69.2207 8.4504C68.8704 8.4504 68.5346 8.31128 68.287 8.06365C68.0393 7.81602 67.9002 7.48016 67.9002 7.12996C67.9002 6.77976 68.0393 6.4439 68.287 6.19627C68.5346 5.94864 68.8704 5.80953 69.2207 5.80953C69.5709 5.80953 69.9067 5.94864 70.1543 6.19627C70.402 6.4439 70.5411 6.77976 70.5411 7.12996ZM63.6748 4.225C61.0614 4.225 60.6346 4.2324 59.4188 4.28627C58.5906 4.32536 58.035 4.43627 57.5195 4.63698C57.061 4.81445 56.7304 5.02677 56.3786 5.37959C56.048 5.69903 55.7938 6.08902 55.6349 6.52045C55.4342 7.03806 55.3233 7.59264 55.2853 8.41977C55.2304 9.58598 55.224 9.99373 55.224 12.6758C55.224 15.2892 55.2314 15.716 55.2853 16.9318C55.3244 17.7589 55.4353 18.3156 55.6349 18.8301C55.8145 19.2896 56.0258 19.6202 56.3765 19.9709C56.7325 20.3259 57.0631 20.5382 57.5174 20.7136C58.0392 20.9153 58.5948 21.0273 59.4188 21.0653C60.585 21.1203 60.9927 21.1266 63.6748 21.1266C66.2882 21.1266 66.715 21.1192 67.9308 21.0653C68.7569 21.0262 69.3136 20.9153 69.8291 20.7157C70.2865 20.5371 70.6193 20.3248 70.97 19.9741C71.326 19.6181 71.5383 19.2875 71.7136 18.8333C71.9143 18.3125 72.0263 17.7558 72.0643 16.9318C72.1193 15.7656 72.1256 15.3579 72.1256 12.6758C72.1256 10.0624 72.1182 9.63562 72.0643 8.41977C72.0253 7.5937 71.9143 7.03595 71.7136 6.52045C71.5544 6.08946 71.3007 5.69962 70.971 5.37959C70.6517 5.04879 70.2617 4.79455 69.8302 4.63592C69.3126 4.43522 68.7569 4.3243 67.9308 4.28627C66.7646 4.23134 66.3569 4.225 63.6748 4.225ZM63.6748 2.1123C66.5449 2.1123 66.903 2.12287 68.0291 2.17569C69.1541 2.2285 69.92 2.40491 70.5939 2.66689C71.2911 2.9352 71.8784 3.29858 72.4658 3.88486C73.0029 4.41292 73.4185 5.05169 73.6837 5.75671C73.9446 6.4296 74.1221 7.19651 74.1749 8.32152C74.2246 9.44759 74.2383 9.8057 74.2383 12.6758C74.2383 15.5459 74.2277 15.904 74.1749 17.0301C74.1221 18.1551 73.9446 18.9209 73.6837 19.5949C73.4193 20.3003 73.0036 20.9392 72.4658 21.4667C71.9375 22.0037 71.2988 22.4193 70.5939 22.6847C69.921 22.9456 69.1541 23.1231 68.0291 23.1759C66.903 23.2256 66.5449 23.2393 63.6748 23.2393C60.8047 23.2393 60.4466 23.2287 59.3205 23.1759C58.1955 23.1231 57.4297 22.9456 56.7557 22.6847C56.0504 22.4201 55.4116 22.0044 54.8839 21.4667C54.3466 20.9388 53.931 20.3 53.6659 19.5949C53.4039 18.922 53.2275 18.1551 53.1747 17.0301C53.1251 15.904 53.1113 15.5459 53.1113 12.6758C53.1113 9.8057 53.1219 9.44759 53.1747 8.32152C53.2275 7.19546 53.4039 6.43066 53.6659 5.75671C53.9302 5.05126 54.346 4.41232 54.8839 3.88486C55.4117 3.34742 56.0505 2.93175 56.7557 2.66689C57.4297 2.40491 58.1945 2.2285 59.3205 2.17569C60.4466 2.12604 60.8047 2.1123 63.6748 2.1123Z" fill="#C0C2D7"/>
</g>
<path d="M110.278 19.8286C102.797 19.8286 98.5302 14.6377 98.3524 6H102.1C102.223 12.3398 104.985 15.0253 107.173 15.5789V6H110.702V11.4678C112.863 11.2324 115.133 8.7408 115.898 6H119.427C118.839 9.37755 116.377 11.8692 114.627 12.8935C116.377 13.7241 119.181 15.8973 120.248 19.8286H116.364C115.529 17.1985 113.451 15.1637 110.702 14.8868V19.8286H110.278Z" fill="#C0C2D7"/>
<path fill-rule="evenodd" clip-rule="evenodd" d="M11.9788 3.00994C7.11958 3.16107 4.95137 3.3117 3.82601 3.57653C2.95294 3.78197 2.24144 4.18617 1.61114 4.83479C0.944093 5.52115 0.639478 6.11103 0.420941 7.13981C-0.141002 9.78449 -0.140153 16.2101 0.422527 18.8582C0.639875 19.8811 0.954286 20.4896 1.60956 21.1557C2.2659 21.8227 3.0679 22.2518 4.01403 22.4422C5.97593 22.8367 12.714 23.0992 17.4153 22.9641C22.0152 22.832 24.3567 22.654 25.4002 22.357C26.7937 21.9604 27.8999 20.9436 28.3755 19.622C29.0985 17.6126 29.225 10.2854 28.59 7.20154C28.3623 6.09587 27.9345 5.30998 27.2026 4.65237C26.5577 4.07306 25.8502 3.72143 24.9819 3.54881C24.0281 3.35914 21.97 3.18863 19.3973 3.08607C17.9571 3.02868 13.0091 2.97789 11.9788 3.00994ZM17.5285 5.19828C22.0099 5.32541 24.3105 5.51758 25.0228 5.82432C25.591 6.06901 26.0053 6.4822 26.1995 6.99789C26.3496 7.39641 26.4972 8.23406 26.5992 9.26555C26.725 10.5385 26.7434 14.9848 26.6283 16.3252C26.4944 17.8851 26.327 18.8117 26.1033 19.2309C25.8165 19.7684 25.2403 20.1818 24.5736 20.3282C22.9864 20.6768 16.2053 20.9241 11.6956 20.7976C8.05115 20.6955 5.51654 20.53 4.51713 20.3291C3.47615 20.1198 2.86392 19.5024 2.64074 18.437C2.14149 16.0536 2.14149 9.93686 2.64074 7.55349C2.76182 6.97548 2.96421 6.58205 3.31085 6.25083C3.84957 5.73601 4.34905 5.5962 6.18795 5.44551C9.23275 5.19595 13.8768 5.09475 17.5285 5.19828ZM11.6107 17.3935L19.4688 12.9856C19.4688 12.9856 19.4688 12.9856 11.6107 8.6048V17.3935Z" fill="#C0C2D7"/>
<path fill-rule="evenodd" clip-rule="evenodd" d="M152.426 1.06863C147.109 1.72167 142.93 5.96027 142.38 11.2586C142.298 12.0438 142.348 13.5306 142.48 14.281C142.69 15.4693 143.038 16.5148 143.577 17.5831L143.849 18.12L143.04 21.0541C142.596 22.6679 142.239 23.9935 142.248 23.9999C142.257 24.0062 143.611 23.6578 145.257 23.2256C147.653 22.5963 148.274 22.4488 148.371 22.4854C148.437 22.5105 148.752 22.6486 149.071 22.7922C150.106 23.2586 151.192 23.5679 152.336 23.7216C153.131 23.8284 154.525 23.8278 155.298 23.7202C157.836 23.3672 160.103 22.2521 161.89 20.4779C162.824 19.5502 163.446 18.7016 164.037 17.5454C164.57 16.5042 164.946 15.3691 165.156 14.1672C165.278 13.4648 165.278 11.4006 165.155 10.6645C164.948 9.42082 164.627 8.4272 164.08 7.32969C162.522 4.20645 159.644 1.98006 156.203 1.23566C155.131 1.00361 153.531 0.932887 152.426 1.06863ZM155.443 3.05454C156.828 3.30908 157.977 3.7689 159.112 4.52362C161.051 5.81215 162.479 7.81302 163.043 10.0335C163.457 11.6641 163.425 13.5162 162.954 15.0842C162.193 17.6194 160.38 19.7534 158.007 20.9061C156.627 21.5762 155.35 21.8684 153.802 21.8684C152.027 21.8684 150.454 21.4405 148.849 20.5208L148.578 20.366L146.802 20.83C145.824 21.0852 145.017 21.2866 145.008 21.2776C144.999 21.2686 145.2 20.5086 145.454 19.5887C145.708 18.6689 145.918 17.8824 145.92 17.8411C145.922 17.7997 145.797 17.5608 145.642 17.3101C143.365 13.6271 143.962 8.77003 147.069 5.69828C148.614 4.17028 150.571 3.23126 152.764 2.96495C153.356 2.89303 154.833 2.9424 155.443 3.05454ZM149.295 7.24121C149.016 7.37859 148.506 7.97741 148.292 8.41813C147.873 9.28383 147.882 10.3751 148.316 11.3856C148.849 12.6273 150.243 14.3904 151.619 15.5629C152.584 16.3847 153.39 16.8663 154.574 17.3283C155.784 17.8002 156.016 17.8545 156.819 17.8542C157.451 17.854 157.551 17.842 157.845 17.732C158.328 17.5512 158.688 17.3235 159.047 16.9722C159.326 16.6996 159.382 16.6143 159.473 16.3244C159.587 15.963 159.652 15.3813 159.601 15.1799C159.574 15.0746 159.438 14.9892 158.752 14.6479C157.495 14.0225 156.989 13.8073 156.773 13.8073C156.597 13.8073 156.567 13.8288 156.354 14.1072C155.866 14.7436 155.419 15.2365 155.302 15.2655C155.163 15.3003 154.889 15.2005 154.255 14.8843C153.23 14.3724 152.393 13.6878 151.673 12.7721C151.282 12.2738 150.929 11.7059 150.929 11.5736C150.929 11.5169 151.111 11.2352 151.333 10.9476C151.768 10.3838 151.895 10.1735 151.895 10.0186C151.895 9.96432 151.801 9.69874 151.685 9.4285C151.57 9.15821 151.338 8.60243 151.169 8.19338C150.96 7.68639 150.813 7.39999 150.707 7.2937L150.553 7.13776L150.029 7.13781C149.59 7.13781 149.471 7.15456 149.295 7.24121Z" fill="#C0C2D7"/>
<path fill-rule="evenodd" clip-rule="evenodd" d="M206.174 5.05634C206.067 5.08678 204.054 5.89902 201.701 6.86139C199.348 7.82371 195.304 9.47746 192.714 10.5363C190.125 11.5953 187.909 12.5127 187.789 12.5751C187.552 12.6992 187.3 12.9599 187.261 13.1222C187.196 13.3911 187.377 13.7335 187.699 13.9481C187.915 14.093 192.26 15.6423 192.37 15.6138C192.406 15.6045 194.988 13.9064 198.109 11.8402C201.229 9.77399 203.831 8.06574 203.891 8.04407C204.042 7.98928 204.244 8.01722 204.293 8.09976C204.405 8.28536 204.613 8.08118 197.472 14.7729C195.266 16.8397 195.107 16.9977 195.168 17.0594C195.205 17.0958 196.852 18.4154 198.829 19.9918C201.513 22.132 202.473 22.876 202.619 22.9288C202.902 23.0314 203.239 23.0225 203.478 22.906C203.663 22.8159 203.947 22.5401 204.038 22.3625C204.083 22.2765 207.249 5.68315 207.248 5.54533C207.246 5.37357 207.104 5.13314 206.964 5.06384C206.798 4.98171 206.449 4.97841 206.174 5.05634Z" fill="#C0C2D7"/>
<defs>
<clipPath id="clip0_102_1629">
<rect width="25.3524" height="25.3524" fill="white" transform="translate(51)"/>
</clipPath>
</defs>
</svg>
